<mxfile host="app.diagrams.net" modified="2024-05-27T06:44:28.867Z" agent="Mozilla/5.0 (Windows NT 10.0; Win64; x64) AppleWebKit/537.36 (KHTML, like Gecko) Chrome/123.0.0.0 Safari/537.36 OPR/109.0.0.0" etag="Gr2B_IdWcGZkUTMBJid5" version="24.4.8" type="github">
  <diagram name="Page-1" id="Ov3L8e16t6Zlc6n3UyPI">
    <mxGraphModel dx="1380" dy="749" grid="1" gridSize="10" guides="1" tooltips="1" connect="1" arrows="1" fold="1" page="1" pageScale="1" pageWidth="850" pageHeight="1100" math="0" shadow="0">
      <root>
        <mxCell id="0" />
        <mxCell id="1" parent="0" />
        <mxCell id="3QzPAx5ynTPlkPCmYJuL-3" style="edgeStyle=orthogonalEdgeStyle;rounded=0;orthogonalLoop=1;jettySize=auto;html=1;exitX=1;exitY=0;exitDx=0;exitDy=47.5;exitPerimeter=0;" edge="1" parent="1" source="3QzPAx5ynTPlkPCmYJuL-1" target="3QzPAx5ynTPlkPCmYJuL-2">
          <mxGeometry relative="1" as="geometry" />
        </mxCell>
        <mxCell id="3QzPAx5ynTPlkPCmYJuL-1" value="&lt;span style=&quot;color: rgb(232, 232, 230); font-family: __fkGroteskNeue_a82850, __fkGroteskNeue_Fallback_a82850, ui-sans-serif, system-ui, -apple-system, BlinkMacSystemFont, &amp;quot;Segoe UI&amp;quot;, Roboto, &amp;quot;Helvetica Neue&amp;quot;, Arial, &amp;quot;Noto Sans&amp;quot;, sans-serif, &amp;quot;Apple Color Emoji&amp;quot;, &amp;quot;Segoe UI Emoji&amp;quot;, &amp;quot;Segoe UI Symbol&amp;quot;, &amp;quot;Noto Color Emoji&amp;quot;; font-size: 16px; text-align: left; background-color: rgb(25, 26, 26);&quot;&gt;PostgreSQL&lt;/span&gt;" style="shape=cylinder3;whiteSpace=wrap;html=1;boundedLbl=1;backgroundOutline=1;size=15;fillColor=#f8cecc;strokeColor=#b85450;" vertex="1" parent="1">
          <mxGeometry x="50" y="90" width="140" height="160" as="geometry" />
        </mxCell>
        <mxCell id="3QzPAx5ynTPlkPCmYJuL-2" value="" style="shape=process;whiteSpace=wrap;html=1;backgroundOutline=1;" vertex="1" parent="1">
          <mxGeometry x="370" y="98" width="355" height="140" as="geometry" />
        </mxCell>
        <mxCell id="3QzPAx5ynTPlkPCmYJuL-4" style="edgeStyle=orthogonalEdgeStyle;rounded=0;orthogonalLoop=1;jettySize=auto;html=1;exitX=0;exitY=0.75;exitDx=0;exitDy=0;entryX=1;entryY=0;entryDx=0;entryDy=112.5;entryPerimeter=0;" edge="1" parent="1" source="3QzPAx5ynTPlkPCmYJuL-2" target="3QzPAx5ynTPlkPCmYJuL-1">
          <mxGeometry relative="1" as="geometry" />
        </mxCell>
      </root>
    </mxGraphModel>
  </diagram>
</mxfile>
